Coordinates
version=1
nRows=13
nColumns=40
inDegrees=yes

Units are S.I. units (second, meters, Newtons, ...)
Angles are in degrees.

endheader
time	pelvis_tilt	pelvis_list	pelvis_rotation	pelvis_tx	pelvis_ty	pelvis_tz	hip_flexion_r	hip_adduction_r	hip_rotation_r	knee_angle_r	knee_angle_r_beta	ankle_angle_r	subtalar_angle_r	mtp_angle_r	hip_flexion_l	hip_adduction_l	hip_rotation_l	knee_angle_l	knee_angle_l_beta	ankle_angle_l	subtalar_angle_l	mtp_angle_l	lumbar_extension	lumbar_bending	lumbar_rotation	arm_flex_r	arm_add_r	arm_rot_r	elbow_flex_r	pro_sup_r	wrist_flex_r	wrist_dev_r	arm_flex_l	arm_add_l	arm_rot_l	elbow_flex_l	pro_sup_l	wrist_flex_l	wrist_dev_l
     15.23500000	     -6.08947834	     -5.06153531	     -6.37335872	      0.91945263	      0.92174883	      0.51713091	     22.29156037	      3.55380406	     -7.67335909	     21.32624106	     21.32624106	      6.28576756	     -0.47673598	     -2.00775973	     -2.60338462	     -8.05882902	    -13.68175949	     18.09804773	     18.09804773	     20.60576885	     -3.09570786	     -0.62843673	     -8.92664097	      7.88724964	      0.66981922	    -12.54492311	    -12.42707687	    -19.48250367	     25.99367651	     46.32269258	      0.00000000	      0.00000000	     32.89536831	    -20.83550807	    -14.42466557	     76.89169007	     47.78036403	      0.00000000	      0.00000000
     15.25485714	     -6.16589949	     -4.99900036	     -5.95819828	      0.92084806	      0.92245578	      0.52143286	     21.78476928	      3.66095121	     -7.97066758	     21.23834318	     21.23834318	      6.80426579	     -0.52885030	     -1.97862487	     -2.46220199	     -8.49686443	    -13.43584928	     18.97778293	     18.97778293	     20.16093610	     -2.99589325	     -0.79564161	     -8.97434098	      7.66328481	      0.67340533	    -12.15994499	    -12.65772246	    -19.44143464	     26.10156293	     46.32082535	      0.00000000	      0.00000000	     32.23939372	    -20.25757925	    -14.23824585	     76.61267239	     47.75970876	      0.00000000	      0.00000000
     15.27471429	     -6.43578340	     -5.12934212	     -5.46290073	      0.92184554	      0.92273808	      0.52570951	     21.41143089	      3.95071078	     -8.55048255	     20.99457002	     20.99457002	      7.31420941	     -0.32827442	     -1.69992881	     -1.56043288	     -9.35509697	    -13.13622399	     20.86027487	     20.86027487	     19.63625987	     -3.02144729	     -1.67120490	     -8.79127270	      7.64946123	      0.56954008	    -11.63836674	    -12.95142914	    -19.28187063	     26.11697379	     46.31831100	      0.00000000	      0.00000000	     31.49070544	    -19.71991986	    -14.06244072	     76.00287431	     47.73596683	      0.00000000	      0.00000000
     15.29457143	     -6.48817798	     -5.18351365	     -5.01438863	      0.92283354	      0.92324122	      0.52986885	     20.83991615	      4.16527959	     -9.00001083	     20.80546701	     20.80546701	      7.82674318	     -0.21846891	     -1.57414520	     -0.76197457	    -10.06593291	    -12.62616025	     22.94407930	     22.94407930	     18.92921549	     -3.46514238	     -2.50038050	     -8.81850463	      7.52081396	      0.56675100	    -10.93529134	    -13.25355634	    -19.14542703	     26.18254160	     46.31590374	      0.00000000	      0.00000000	     30.58386064	    -19.10436335	    -13.80055359	     75.30886674	     47.70240293	      0.00000000	      0.00000000
     15.31442857	     -6.51340791	     -5.22957857	     -4.56005110	      0.92362201	      0.92365125	      0.53385177	     20.25925914	      4.37057561	     -9.43291039	     20.62051424	     20.62051424	      8.34163184	     -0.13749822	     -1.49745289	      0.33048851	    -10.77697949	    -11.89072214	     25.54476382	     25.54476382	     18.00003354	     -4.28568166	     -3.49359275	     -8.83945408	      7.37915421	      0.54302439	    -10.04463638	    -13.55606082	    -18.99872651	     26.25887726	     46.31382677	      0.00000000	      0.00000000	     29.50431385	    -18.44551861	    -13.46201309	     74.38244070	     47.65806553	      0.00000000	      0.00000000
     15.33428571	     -6.55573248	     -5.17510951	     -4.05913029	      0.92419357	      0.92385803	      0.53753300	     19.85776450	      4.42730413	     -9.84433824	     20.71691992	     20.71691992	      9.11991292	     -0.07832027	     -0.85012552	      1.62127198	    -11.22459039	    -10.59622248	     28.15980848	     28.15980848	     15.36225885	     -6.66254078	     -7.60836077	     -8.68119404	      7.12428087	      0.34562161	     -8.53209115	    -13.94939182	    -18.15029765	     25.20247750	     46.33158611	      0.00000000	      0.00000000	     28.58094340	    -17.90048646	    -12.78683189	     71.85807683	     47.57577532	      0.00000000	      0.00000000
     15.35414286	     -6.51513458	     -5.26256901	     -3.57529342	      0.92464570	      0.92406377	      0.54112006	     19.24295648	      4.67927711	    -10.17410870	     20.53867047	     20.53867047	      9.53882177	     -0.16930961	     -0.83424269	      3.30713725	    -11.92592365	     -9.43404162	     31.76844268	     31.76844268	     13.91482645	     -8.24840042	     -8.60377211	     -8.66928305	      7.03674451	      0.33533808	     -7.33602546	    -14.21781015	    -18.01470700	     25.45389182	     46.32870316	      0.00000000	      0.00000000	     27.10738453	    -17.09712537	    -12.29593077	     70.72739118	     47.51591595	      0.00000000	      0.00000000
     15.37400000	     -6.34926566	     -5.28844666	     -3.03012461	      0.92480687	      0.92414238	      0.54440714	     18.67358337	      4.84294560	    -10.38035596	     20.65426733	     20.65426733	     10.12356676	     -0.52613598	     -0.83378995	      5.11927382	    -12.33965245	     -7.71912849	     35.59839798	     35.59839798	     11.88975764	    -10.86888225	     -9.78789618	     -8.79688211	      6.84273550	      0.13429963	     -5.65398650	    -14.50631809	    -17.68218122	     25.29513398	     46.34150498	      0.00000000	      0.00000000	     25.82228732	    -16.48770514	    -11.53088940	     68.30017754	     47.42217984	      0.00000000	      0.00000000
     15.39385714	     -5.99947842	     -5.53090579	     -2.50116928	      0.92491678	      0.92417262	      0.54762623	     17.86702021	      5.23779860	    -10.67220284	     20.69623048	     20.69623048	     10.66723987	     -0.78419669	     -0.95127684	      7.00373149	    -13.08165563	     -6.35058177	     39.89354277	     39.89354277	     10.37162330	    -12.43321602	     -9.94819498	     -9.18266003	      6.86326713	      0.24566337	     -4.04798680	    -14.76577230	    -17.61207149	     25.74459852	     46.33510021	      0.00000000	      0.00000000	     24.27462861	    -15.51590264	    -10.96344518	     66.93349122	     47.34982267	      0.00000000	      0.00000000
     15.41371429	     -5.90918833	     -5.51145977	     -1.88420595	      0.92461342	      0.92368659	      0.55032675	     17.54483775	      5.35821941	    -10.68839577	     21.02181037	     21.02181037	     11.26567272	     -1.61738515	     -0.89282984	      9.45489460	    -13.13515807	     -4.28287029	     44.33908104	     44.33908104	      9.08988599	    -14.83198486	     -8.02124731	     -9.00081282	      6.64026691	      0.13992987	     -1.96857868	    -14.97501646	    -17.19124488	     25.05187625	     46.37985546	      0.00000000	      0.00000000	     23.36896145	    -14.81862799	     -9.46310036	     62.22338377	     47.18094806	      0.00000000	      0.00000000
     15.43357143	     -5.62111700	     -5.63976337	     -1.27346037	      0.92420854	      0.92311503	      0.55290815	     17.07332100	      5.63247250	    -10.71212427	     21.44972007	     21.44972007	     11.89907283	     -2.48339043	     -0.88008509	     11.87003053	    -13.32282644	     -2.46451582	     48.95733317	     48.95733317	      8.94104597	    -15.99204856	     -3.90950014	     -9.14897881	      6.55717033	      0.15663201	      0.05017331	    -15.13345187	    -17.14595032	     25.33639612	     46.41340991	      0.00000000	      0.00000000	     22.18757065	    -14.00825346	     -8.13422883	     58.42883572	     47.04291863	      0.00000000	      0.00000000
     15.45342857	     -5.33634858	     -5.78280296	     -0.63015402	      0.92367183	      0.92223452	      0.55528538	     16.70087189	      5.92746102	    -10.66087710	     22.01813098	     22.01813098	     12.53798369	     -3.57005467	     -0.99321375	     14.23361474	    -13.44054272	     -0.78736358	     53.06990103	     53.06990103	      8.00532726	    -17.42419764	     -2.01561409	     -9.28153256	      6.47679292	     -0.35274673	      2.40027030	    -15.11228284	    -17.13952591	     26.33385023	     46.39649096	      0.00000000	      0.00000000	     20.23209272	    -13.45576507	     -7.37464543	     55.57140859	     46.93526425	      0.00000000	      0.00000000
     15.47328571	     -4.89053394	     -5.93903669	      0.01235910	      0.92296663	      0.92137260	      0.55736817	     16.22258512	      6.24765998	    -10.51578843	     22.67412959	     22.67412959	     13.20904135	     -4.79363145	     -0.85691472	     16.63693017	    -13.35110949	      0.94848141	     57.29763014	     57.29763014	      9.61504315	    -17.80928091	      5.67716898	     -9.56941398	      6.40237106	      0.08034031	      4.51522436	    -15.32006811	    -16.99334537	     26.63966162	     46.40894209	      0.00000000	      0.00000000	     19.71540086	    -12.32444149	     -5.68928062	     50.05638419	     46.74791108	      0.00000000	      0.00000000
